<svg width="107" height="46" viewBox="0 0 107 46" fill="none" xmlns="http://www.w3.org/2000/svg">
<rect x="1.5" y="4.5" width="104" height="38" rx="19" stroke="#191A19" stroke-width="3"/>
<circle cx="87" cy="23" r="18.5" fill="white" stroke="#191A19" stroke-width="3"/>
<ellipse cx="87" cy="23" rx="6.53846" ry="6.15385" fill="#FF6701" fill-opacity="0.6"/>
<path d="M87.4359 7.82051L88.2156 15.1587C88.2648 15.6219 87.9017 16.0256 87.4359 16.0256V16.0256C86.9701 16.0256 86.607 15.6219 86.6562 15.1587L87.4359 7.82051Z" fill="#FF6701" fill-opacity="0.6"/>
<path d="M87.4359 38.1795L86.6562 30.8413C86.607 30.3781 86.9701 29.9744 87.4359 29.9744V29.9744C87.9017 29.9744 88.2648 30.3781 88.2156 30.8413L87.4359 38.1795Z" fill="#FF6701" fill-opacity="0.6"/>
<path d="M98.578 12.2629L93.5796 18.0081C93.2839 18.348 92.741 18.3733 92.4111 18.0625V18.0625C92.0811 17.7518 92.1084 17.2408 92.4698 16.9628L98.578 12.2629Z" fill="#FF6701" fill-opacity="0.6"/>
<path d="M75.5919 12.2629L80.5904 18.0081C80.8861 18.348 81.429 18.3733 81.7589 18.0625V18.0625C82.0888 17.7518 82.0615 17.2408 81.7002 16.9628L75.5919 12.2629Z" fill="#FF6701" fill-opacity="0.6"/>
<path d="M103.128 22.5898L95.2272 21.8461C94.7889 21.8049 94.4103 22.1496 94.4103 22.5898V22.5898C94.4103 23.0299 94.7889 23.3746 95.2272 23.3334L103.128 22.5898Z" fill="#FF6701" fill-opacity="0.6"/>
<path d="M70.8718 22.5898L78.7728 21.8461C79.2111 21.8049 79.5897 22.1496 79.5897 22.5898V22.5898C79.5897 23.0299 79.2111 23.3746 78.7728 23.3334L70.8718 22.5898Z" fill="#FF6701" fill-opacity="0.6"/>
<path d="M100.306 32.0742L93.4114 28.4297C93.0124 28.2188 92.899 27.7241 93.1672 27.3641V27.3641C93.4353 27.0042 93.968 26.9359 94.3147 27.217L100.306 32.0742Z" fill="#FF6701" fill-opacity="0.6"/>
<path d="M73.8297 32.0742L80.7239 28.4297C81.1229 28.2188 81.2363 27.7241 80.9682 27.3641V27.3641C80.7001 27.0042 80.1674 26.9359 79.8206 27.217L73.8297 32.0742Z" fill="#FF6701" fill-opacity="0.6"/>
</svg>
