<svg width="107" height="46" viewBox="0 0 107 46" fill="none" xmlns="http://www.w3.org/2000/svg">
<rect x="1.5" y="4.5" width="104" height="38" rx="19" stroke="#191A19" stroke-width="3"/>
<circle cx="20" cy="23" r="19" fill="#191A19" stroke="#191A19" stroke-width="2"/>
<path d="M16.7213 32.7663C18.2776 33.532 19.9976 33.8825 21.7289 33.7867C23.4601 33.6909 25.1492 33.1518 26.6466 32.2172C28.1439 31.2825 29.4033 29.9812 30.3132 28.4284C31.223 26.8756 31.7552 25.1192 31.8626 23.315C31.9701 21.5107 31.6495 19.7142 30.9292 18.0846C30.2089 16.455 29.1111 15.0426 27.7331 13.9724C26.3552 12.9023 24.7395 12.2075 23.0293 11.9496C21.3191 11.6917 19.5672 11.8786 17.9286 12.4938L19.4465 13.0926C29.4125 17.0247 27.3808 31.6913 16.7213 32.7663Z" fill="#FFFEFA"/>
</svg>
