<svg width="111" height="46" viewBox="0 0 111 46" fill="none" xmlns="http://www.w3.org/2000/svg">
<rect x="5.5" y="4.5" width="104" height="38" rx="19" stroke="white" stroke-width="3"/>
<circle cx="20" cy="23" r="18.5" fill="#191A19" stroke="white" stroke-width="3"/>
<path d="M14.7213 31.7663C16.2776 32.532 17.9976 32.8825 19.7288 32.7867C21.4601 32.6909 23.1492 32.1518 24.6466 31.2172C26.1439 30.2825 27.4033 28.9812 28.3131 27.4284C29.223 25.8756 29.7552 24.1192 29.8626 22.315C29.9701 20.5107 29.6495 18.7142 28.9291 17.0846C28.2088 15.455 27.1111 14.0426 25.7331 12.9724C24.3552 11.9023 22.7395 11.2075 21.0293 10.9496C19.3191 10.6917 17.5672 10.8786 15.9286 11.4938L17.4465 12.0926C27.4125 16.0247 25.3808 30.6913 14.7213 31.7663Z" fill="#FFFEFA"/>
</svg>
