<svg width="58" height="58" viewBox="0 0 58 58" fill="none" xmlns="http://www.w3.org/2000/svg">
<path d="M29 51.4375C41.3919 51.4375 51.4375 41.3919 51.4375 29C51.4375 16.6081 41.3919 6.5625 29 6.5625C16.6081 6.5625 6.5625 16.6081 6.5625 29C6.5625 41.3919 16.6081 51.4375 29 51.4375Z" fill="#191A19" stroke="#191A19"/>
<path d="M29 57C44.464 57 57 44.464 57 29C57 13.536 44.464 1 29 1C13.536 1 1 13.536 1 29C1 44.464 13.536 57 29 57Z" stroke="#191A19" stroke-width="2"/>
<path d="M33.3617 13.3029C33.3617 15.5068 31.5038 17.2934 29.2121 17.2934C26.9203 17.2934 25.0625 15.5068 25.0625 13.3029C25.0625 11.0991 26.9203 9.3125 29.2121 9.3125C31.5038 9.3125 33.3617 11.0991 33.3617 13.3029Z" fill="#FFFEFA"/>
<path fill-rule="evenodd" clip-rule="evenodd" d="M23.8884 21.7693L17.0366 20.2443C16.4339 20.1101 15.8383 20.4967 15.7155 21.1019V21.1019C15.5958 21.6913 15.9701 22.2679 16.5572 22.3986L23.7379 23.9968L24.4302 33.9666L22.4556 49.0273C22.3456 49.8666 22.9172 50.6433 23.7512 50.7878V50.7878C24.5626 50.9284 25.3457 50.4217 25.5499 49.624L28.6404 37.5532L29.2286 35.039L29.793 37.5532L32.9131 49.5891C33.1143 50.3652 33.8771 50.8572 34.6671 50.7203V50.7203C35.5107 50.5741 36.0732 49.7681 35.9194 48.9259L33.2691 34.4099L34.6835 24.0594L42.297 22.4449C42.991 22.2977 43.3852 21.5612 43.1227 20.9021V20.9021C42.9155 20.3818 42.362 20.0879 41.8149 20.2077L34.8239 21.7386C34.7304 21.759 34.6356 21.7728 34.5402 21.7797L29.2286 22.1633L23.8884 21.7693Z" fill="#FFFEFA"/>
</svg>
