<svg width="70" height="70" viewBox="0 0 70 70" fill="none" xmlns="http://www.w3.org/2000/svg">
<rect width="70" height="70" rx="5" fill="#2558EE"/>
<path d="M10.6526 48.9991V19.9082H22.3003C24.4405 19.9082 26.2255 20.2254 27.6554 20.8599C29.0854 21.4944 30.1602 22.3751 30.8799 23.502C31.5996 24.6194 31.9594 25.9073 31.9594 27.3656C31.9594 28.502 31.7321 29.501 31.2776 30.3627C30.823 31.215 30.198 31.9158 29.4026 32.465C28.6166 33.0048 27.717 33.3883 26.7037 33.6156V33.8997C27.8117 33.947 28.8486 34.2595 29.8145 34.8372C30.7899 35.4148 31.5806 36.2245 32.1867 37.2662C32.7927 38.2984 33.0958 39.5294 33.0958 40.9593C33.0958 42.5029 32.7122 43.8807 31.9452 45.0929C31.1876 46.2955 30.0655 47.2472 28.5787 47.948C27.092 48.6487 25.2596 48.9991 23.0816 48.9991H10.6526ZM16.8032 43.9707H21.8174C23.5314 43.9707 24.7814 43.644 25.5674 42.9906C26.3533 42.3277 26.7463 41.447 26.7463 40.3485C26.7463 39.5436 26.5522 38.8334 26.164 38.2179C25.7757 37.6023 25.2217 37.1194 24.502 36.769C23.7918 36.4186 22.9443 36.2434 21.9594 36.2434H16.8032V43.9707ZM16.8032 32.0815H21.3628C22.2056 32.0815 22.9537 31.9347 23.6071 31.6412C24.27 31.3381 24.7908 30.912 25.1696 30.3627C25.5579 29.8135 25.752 29.1554 25.752 28.3883C25.752 27.3372 25.378 26.4896 24.6299 25.8457C23.8912 25.2018 22.8401 24.8798 21.4765 24.8798H16.8032V32.0815Z" fill="white"/>
<path d="M48.3274 49.4252C46.0831 49.4252 44.1513 48.9707 42.532 48.0616C40.9221 47.1431 39.6816 45.8457 38.8104 44.1696C37.9392 42.484 37.5036 40.4906 37.5036 38.1895C37.5036 35.9451 37.9392 33.9754 38.8104 32.2804C39.6816 30.5853 40.9079 29.2643 42.4894 28.3173C44.0803 27.3703 45.9458 26.8968 48.086 26.8968C49.5254 26.8968 50.8653 27.1288 52.1059 27.5929C53.3559 28.0474 54.4449 28.734 55.3729 29.6525C56.3104 30.5711 57.0396 31.7264 57.5604 33.1184C58.0812 34.501 58.3417 36.1203 58.3417 37.9764V39.6383H39.9184V35.8883H52.6456C52.6456 35.0171 52.4562 34.2453 52.0774 33.573C51.6987 32.9006 51.1731 32.3751 50.5007 31.9963C49.8379 31.608 49.0661 31.4139 48.1854 31.4139C47.2668 31.4139 46.4524 31.627 45.7422 32.0531C45.0415 32.4698 44.4922 33.0332 44.0945 33.7434C43.6968 34.4442 43.4932 35.2254 43.4837 36.0872V39.6525C43.4837 40.7321 43.6826 41.6648 44.0803 42.4508C44.4875 43.2368 45.0604 43.8429 45.799 44.269C46.5377 44.6951 47.4136 44.9082 48.4269 44.9082C49.0992 44.9082 49.7148 44.8135 50.2735 44.6241C50.8322 44.4347 51.3104 44.1506 51.7081 43.7718C52.1059 43.3931 52.4089 42.929 52.6172 42.3798L58.2138 42.7491C57.9297 44.0938 57.3473 45.2681 56.4667 46.2718C55.5954 47.2662 54.4685 48.0427 53.086 48.6014C51.7129 49.1506 50.1267 49.4252 48.3274 49.4252Z" fill="white"/>
<path d="M38 19.9991H58V23.9991H38V19.9991Z" fill="white"/>
</svg>
