<svg width="40" height="40" viewBox="0 0 40 40" fill="none" xmlns="http://www.w3.org/2000/svg">
<g clip-path="url(#clip0_38_35)">
<path d="M6.0874 28.0003V11.377H12.7432C13.9662 11.377 14.9862 11.5582 15.8033 11.9208C16.6204 12.2833 17.2346 12.7866 17.6458 13.4305C18.0571 14.0691 18.2627 14.805 18.2627 15.6383C18.2627 16.2877 18.1329 16.8586 17.8731 17.351C17.6134 17.838 17.2562 18.2384 16.8017 18.5523C16.3526 18.8607 15.8385 19.0799 15.2595 19.2097V19.3721C15.8926 19.3991 16.4851 19.5777 17.0371 19.9078C17.5944 20.2379 18.0463 20.7005 18.3926 21.2958C18.7389 21.8856 18.9121 22.5891 18.9121 23.4062C18.9121 24.2882 18.6929 25.0755 18.2546 25.7682C17.8217 26.4554 17.1805 26.9992 16.3309 27.3997C15.4813 27.8001 14.4343 28.0003 13.1897 28.0003H6.0874ZM9.60201 25.127H12.4673C13.4467 25.127 14.161 24.9403 14.6101 24.5669C15.0593 24.1881 15.2838 23.6849 15.2838 23.0571C15.2838 22.5972 15.1729 22.1913 14.951 21.8396C14.7292 21.4879 14.4126 21.2119 14.0014 21.0117C13.5955 20.8115 13.1112 20.7114 12.5484 20.7114H9.60201V25.127ZM9.60201 18.3331H12.2075C12.6891 18.3331 13.1166 18.2492 13.49 18.0815C13.8688 17.9083 14.1664 17.6648 14.3829 17.351C14.6047 17.0371 14.7156 16.661 14.7156 16.2227C14.7156 15.6221 14.5019 15.1378 14.0744 14.7698C13.6523 14.4018 13.0517 14.2179 12.2725 14.2179H9.60201V18.3331Z" fill="#24292F"/>
<path d="M27.6159 28.2438C26.3334 28.2438 25.2295 27.9841 24.3042 27.4646C23.3843 26.9397 22.6754 26.1984 22.1776 25.2406C21.6797 24.2774 21.4308 23.1383 21.4308 21.8234C21.4308 20.5409 21.6797 19.4154 22.1776 18.4468C22.6754 17.4781 23.3762 16.7233 24.2799 16.1821C25.1889 15.641 26.255 15.3705 27.4779 15.3705C28.3004 15.3705 29.0661 15.503 29.775 15.7682C30.4893 16.0279 31.1116 16.4202 31.6419 16.9451C32.1776 17.47 32.5942 18.1302 32.8919 18.9257C33.1895 19.7157 33.3383 20.641 33.3383 21.7016V22.6513H22.8107V20.5084H30.0834C30.0834 20.0106 29.9752 19.5696 29.7587 19.1854C29.5423 18.8012 29.242 18.5009 28.8578 18.2844C28.479 18.0626 28.038 17.9516 27.5347 17.9516C27.0098 17.9516 26.5445 18.0734 26.1386 18.3169C25.7382 18.555 25.4243 18.877 25.1971 19.2828C24.9698 19.6832 24.8534 20.1297 24.848 20.6221V22.6594C24.848 23.2763 24.9617 23.8093 25.1889 24.2584C25.4216 24.7076 25.749 25.0539 26.1711 25.2974C26.5932 25.5409 27.0937 25.6627 27.6727 25.6627C28.0569 25.6627 28.4086 25.6086 28.7279 25.5003C29.0472 25.3921 29.3204 25.2298 29.5477 25.0133C29.775 24.7969 29.9481 24.5317 30.0672 24.2179L33.2652 24.4289C33.1029 25.1973 32.7701 25.8683 32.2669 26.4419C31.769 27.0101 31.1251 27.4538 30.335 27.7731C29.5504 28.0869 28.644 28.2438 27.6159 28.2438Z" fill="#24292F"/>
<path d="M21.7145 11.4289H33.143V13.7146H21.7145V11.4289Z" fill="#24292F"/>
</g>
<defs>
<clipPath id="clip0_38_35">
<rect width="40" height="40" rx="5" fill="white"/>
</clipPath>
</defs>
</svg>
