<svg width="70" height="70" viewBox="0 0 70 70" fill="none" xmlns="http://www.w3.org/2000/svg">
<path d="M0 5C0 2.23858 2.23858 0 5 0H65C67.7614 0 70 2.23858 70 5V65C70 67.7614 67.7614 70 65 70H5C2.23858 70 0 67.7614 0 65V5Z" fill="#F8F8F8"/>
<path fill-rule="evenodd" clip-rule="evenodd" d="M34.9136 7C18.9251 7 6 20.0204 6 36.1284C6 49.0044 14.2816 59.9037 25.7703 63.7613C27.2067 64.0513 27.7328 63.1345 27.7328 62.3634C27.7328 61.6881 27.6855 59.3734 27.6855 56.9617C19.6424 58.6981 17.9675 53.4894 17.9675 53.4894C16.675 50.1135 14.7598 49.2459 14.7598 49.2459C12.1273 47.4615 14.9515 47.4615 14.9515 47.4615C17.8717 47.6545 19.4039 50.4515 19.4039 50.4515C21.9885 54.8879 26.1532 53.6344 27.8287 52.8626C28.0678 50.9818 28.8342 49.6797 29.648 48.9565C23.2331 48.2812 16.4838 45.7736 16.4838 34.5849C16.4838 31.402 17.632 28.7979 19.4513 26.7727C19.1642 26.0495 18.1587 23.0589 19.7389 19.0563C19.7389 19.0563 22.1802 18.2846 27.6849 22.0463C30.0416 21.4087 32.4721 21.0843 34.9136 21.0816C37.3549 21.0816 39.8436 21.4195 42.1417 22.0463C47.647 18.2846 50.0883 19.0563 50.0883 19.0563C51.6685 23.0589 50.6624 26.0495 50.3753 26.7727C52.2426 28.7979 53.3434 31.402 53.3434 34.5849C53.3434 45.7736 46.5941 48.2327 40.1312 48.9565C41.1847 49.8727 42.0938 51.6085 42.0938 54.3576C42.0938 58.2637 42.0464 61.3987 42.0464 62.3628C42.0464 63.1345 42.5731 64.0513 44.0089 63.7619C55.4977 59.9031 63.7793 49.0044 63.7793 36.1284C63.8266 20.0204 50.8541 7 34.9136 7Z" fill="#24292F"/>
</svg>
