<svg width="42" height="42" viewBox="0 0 42 42" fill="none" xmlns="http://www.w3.org/2000/svg">
<path d="M1 3.85714C1 2.27919 2.27919 1 3.85714 1H38.1429C39.7208 1 41 2.27919 41 3.85714V38.1429C41 39.7208 39.7208 41 38.1429 41H3.85714C2.27919 41 1 39.7208 1 38.1429V3.85714Z" fill="#FFF5ED" stroke="black" stroke-opacity="0.04"/>
<path fill-rule="evenodd" clip-rule="evenodd" d="M20.9506 5C11.8144 5 4.42857 12.4402 4.42857 21.6448C4.42857 29.0025 9.1609 35.2307 15.7259 37.435C16.5467 37.6007 16.8473 37.0769 16.8473 36.6362C16.8473 36.2503 16.8203 34.9277 16.8203 33.5495C12.2242 34.5418 11.2672 31.5654 11.2672 31.5654C10.5286 29.6363 9.43416 29.1405 9.43416 29.1405C7.92988 28.1209 9.54373 28.1209 9.54373 28.1209C11.2124 28.2311 12.088 29.8294 12.088 29.8294C13.5648 32.3645 15.9447 31.6482 16.9021 31.2072C17.0388 30.1324 17.4767 29.3884 17.9417 28.9751C14.2761 28.5893 10.4193 27.1563 10.4193 20.7628C10.4193 18.944 11.0754 17.456 12.115 16.2987C11.951 15.8854 11.3764 14.1765 12.2794 11.8893C12.2794 11.8893 13.6744 11.4483 16.8199 13.5979C18.1667 13.2335 19.5555 13.0482 20.9506 13.0466C22.3457 13.0466 23.7678 13.2397 25.081 13.5979C28.2268 11.4483 29.6219 11.8893 29.6219 11.8893C30.5249 14.1765 29.9499 15.8854 29.7859 16.2987C30.8529 17.456 31.4819 18.944 31.4819 20.7628C31.4819 27.1563 27.6252 28.5615 23.9321 28.9751C24.5341 29.4987 25.0536 30.4906 25.0536 32.0615C25.0536 34.2936 25.0265 36.085 25.0265 36.6359C25.0265 37.0769 25.3275 37.6007 26.148 37.4354C32.713 35.2303 37.4453 29.0025 37.4453 21.6448C37.4723 12.4402 30.0595 5 20.9506 5Z" fill="#24292F"/>
</svg>
