<svg width="40" height="40" viewBox="0 0 40 40" fill="none" xmlns="http://www.w3.org/2000/svg">
<path fill-rule="evenodd" clip-rule="evenodd" d="M19.9506 4C10.8144 4 3.42857 11.4402 3.42857 20.6448C3.42857 28.0025 8.1609 34.2307 14.7259 36.435C15.5467 36.6007 15.8473 36.0769 15.8473 35.6362C15.8473 35.2503 15.8203 33.9277 15.8203 32.5495C11.2242 33.5418 10.2672 30.5654 10.2672 30.5654C9.52855 28.6363 8.43416 28.1405 8.43416 28.1405C6.92988 27.1209 8.54373 27.1209 8.54373 27.1209C10.2124 27.2311 11.088 28.8294 11.088 28.8294C12.5648 31.3645 14.9447 30.6482 15.9021 30.2072C16.0388 29.1324 16.4767 28.3884 16.9417 27.9751C13.2761 27.5893 9.41931 26.1563 9.41931 19.7628C9.41931 17.944 10.0754 16.456 11.115 15.2987C10.951 14.8854 10.3764 13.1765 11.2794 10.8893C11.2794 10.8893 12.6744 10.4483 15.8199 12.5979C17.1667 12.2335 18.5555 12.0482 19.9506 12.0466C21.3457 12.0466 22.7678 12.2397 24.081 12.5979C27.2268 10.4483 28.6219 10.8893 28.6219 10.8893C29.5249 13.1765 28.9499 14.8854 28.7859 15.2987C29.8529 16.456 30.4819 17.944 30.4819 19.7628C30.4819 26.1563 26.6252 27.5615 22.9321 27.9751C23.5341 28.4987 24.0536 29.4906 24.0536 31.0615C24.0536 33.2936 24.0265 35.085 24.0265 35.6359C24.0265 36.0769 24.3275 36.6007 25.148 36.4354C31.713 34.2303 36.4453 28.0025 36.4453 20.6448C36.4723 11.4402 29.0595 4 19.9506 4Z" fill="#24292F"/>
</svg>
