<svg width="42" height="42" viewBox="0 0 42 42" fill="none" xmlns="http://www.w3.org/2000/svg">
<path d="M1 3.85714C1 2.27919 2.27919 1 3.85714 1H38.1429C39.7208 1 41 2.27919 41 3.85714V38.1429C41 39.7208 39.7208 41 38.1429 41H3.85714C2.27919 41 1 39.7208 1 38.1429V3.85714Z" fill="#FFF5ED" stroke="black" stroke-opacity="0.04"/>
<path d="M10.9426 30.7143V16.3766H14.919V30.7143H10.9426ZM12.9402 14.5284C12.349 14.5284 11.8418 14.3324 11.4186 13.9403C11.0017 13.5421 10.7932 13.066 10.7932 12.5122C10.7932 11.9646 11.0017 11.4947 11.4186 11.1027C11.8418 10.7044 12.349 10.5053 12.9402 10.5053C13.5313 10.5053 14.0354 10.7044 14.4523 11.1027C14.8755 11.4947 15.0871 11.9646 15.0871 12.5122C15.0871 13.066 14.8755 13.5421 14.4523 13.9403C14.0354 14.3324 13.5313 14.5284 12.9402 14.5284Z" fill="#24292F"/>
<path d="M21.856 22.4253V30.7143H17.8796V16.3766H21.6693V18.9062H21.8373C22.1547 18.0724 22.6868 17.4127 23.4335 16.9274C24.1803 16.4357 25.0857 16.1899 26.1498 16.1899C27.1455 16.1899 28.0136 16.4077 28.7541 16.8433C29.4947 17.279 30.0703 17.9012 30.481 18.7102C30.8917 19.513 31.0971 20.4713 31.0971 21.5852V30.7143H27.1206V22.2946C27.1268 21.4172 26.9028 20.7327 26.4485 20.2411C25.9943 19.7432 25.3689 19.4943 24.5723 19.4943C24.0372 19.4943 23.5642 19.6094 23.1535 19.8397C22.749 20.0699 22.4316 20.406 22.2014 20.8478C21.9774 21.2834 21.8622 21.8093 21.856 22.4253Z" fill="#24292F"/>
</svg>
