<svg width="40" height="40" viewBox="0 0 40 40" fill="none" xmlns="http://www.w3.org/2000/svg">
<path d="M9.94259 29.7143V15.3766H13.919V29.7143H9.94259ZM11.9402 13.5284C11.349 13.5284 10.8418 13.3324 10.4186 12.9403C10.0017 12.5421 9.79324 12.066 9.79324 11.5122C9.79324 10.9646 10.0017 10.4947 10.4186 10.1027C10.8418 9.70441 11.349 9.50528 11.9402 9.50528C12.5313 9.50528 13.0354 9.70441 13.4523 10.1027C13.8755 10.4947 14.0871 10.9646 14.0871 11.5122C14.0871 12.066 13.8755 12.5421 13.4523 12.9403C13.0354 13.3324 12.5313 13.5284 11.9402 13.5284Z" fill="#24292F"/>
<path d="M20.856 21.4253V29.7143H16.8796V15.3766H20.6693V17.9062H20.8373C21.1547 17.0724 21.6868 16.4127 22.4335 15.9274C23.1803 15.4357 24.0857 15.1899 25.1498 15.1899C26.1455 15.1899 27.0136 15.4077 27.7541 15.8433C28.4947 16.279 29.0703 16.9012 29.481 17.7102C29.8917 18.513 30.0971 19.4713 30.0971 20.5852V29.7143H26.1206V21.2946C26.1268 20.4172 25.9028 19.7327 25.4485 19.2411C24.9943 18.7432 24.3689 18.4943 23.5723 18.4943C23.0372 18.4943 22.5642 18.6094 22.1535 18.8397C21.749 19.0699 21.4316 19.406 21.2014 19.8478C20.9774 20.2834 20.8622 20.8093 20.856 21.4253Z" fill="#24292F"/>
</svg>
