<svg width="70" height="70" viewBox="0 0 70 70" fill="none" xmlns="http://www.w3.org/2000/svg">
<path d="M0 5C0 2.23858 2.23858 0 5 0H65C67.7614 0 70 2.23858 70 5V65C70 67.7614 67.7614 70 65 70H5C2.23858 70 0 67.7614 0 65V5Z" fill="#2D64BC"/>
<path d="M17.3995 52V26.9091H24.3583V52H17.3995ZM20.8953 23.6747C19.8607 23.6747 18.9732 23.3317 18.2326 22.6456C17.503 21.9486 17.1382 21.1155 17.1382 20.1463C17.1382 19.188 17.503 18.3658 18.2326 17.6797C18.9732 16.9827 19.8607 16.6342 20.8953 16.6342C21.9298 16.6342 22.8119 16.9827 23.5416 17.6797C24.2821 18.3658 24.6524 19.188 24.6524 20.1463C24.6524 21.1155 24.2821 21.9486 23.5416 22.6456C22.8119 23.3317 21.9298 23.6747 20.8953 23.6747Z" fill="white"/>
<path d="M36.498 37.4943V52H29.5392V26.9091H36.1713V31.3359H36.4654C37.0207 29.8767 37.9519 28.7223 39.2587 27.8729C40.5655 27.0125 42.15 26.5824 44.0122 26.5824C45.7547 26.5824 47.2738 26.9635 48.5698 27.7259C49.8657 28.4882 50.873 29.5772 51.5918 30.9929C52.3105 32.3977 52.6699 34.0748 52.6699 36.0241V52H45.7111V37.2656C45.722 35.7301 45.3299 34.5322 44.535 33.6719C43.74 32.8007 42.6455 32.3651 41.2516 32.3651C40.315 32.3651 39.4874 32.5665 38.7686 32.9695C38.0608 33.3724 37.5054 33.9605 37.1024 34.7337C36.7104 35.496 36.5089 36.4162 36.498 37.4943Z" fill="white"/>
</svg>
